# xmcd
#
# Track frame offsets: 
#        150
#        15923
#        34180
#        49805
#        68133
#        88308
#        105963
#        120738
#        138355
#        156740
#        174590
#        191515
#        210208
#
# Disc length: 3248 seconds
#
# Revision: 8
# Processed by: cddbd v1.5.2PL0 Copyright (c) Steve Scherf et al.
# Submitted via: ExactAudioCopy v1.3
#
DISCID=ab0cae0d
DTITLE=Pat Green - Wave On Wave
DYEAR=2003
DGENRE=Country
TTITLE0=Guy Like Me
TTITLE1=Poetry
TTITLE2=Wrapped
TTITLE3=Wave On Wave
TTITLE4=California
TTITLE5=Sing 'Til I Stop Crying
TTITLE6=All The Good Things Fade Away
TTITLE7=Run
TTITLE8=I'm Tired
TTITLE9=Eden's Gate
TTITLE10=Elvis
TTITLE11=Barricades
TTITLE12=If I Was The Devil
EXTD=
EXTT0=
EXTT1=
EXTT2=
EXTT3=
EXTT4=
EXTT5=
EXTT6=
EXTT7=
EXTT8=
EXTT9=
EXTT10=
EXTT11=
EXTT12=
PLAYORDER=
